<?xml version="1.0" standalone="no"?>
<!DOCTYPE svg PUBLIC "-//W3C//DTD SVG 20010904//EN"
 "http://www.w3.org/TR/2001/REC-SVG-20010904/DTD/svg10.dtd">
<svg version="1.0" xmlns="http://www.w3.org/2000/svg"
 width="182.000000pt" height="74.000000pt" viewBox="0 0 182.000000 74.000000"
 preserveAspectRatio="xMidYMid meet">

<g transform="translate(0.000000,74.000000) scale(0.100000,-0.100000)"
fill="#000000" stroke="none">
<path d="M265 490 c10 -11 20 -20 23 -20 3 0 -3 9 -13 20 -10 11 -20 20 -23
20 -3 0 3 -9 13 -20z"/>
<path d="M395 489 c-11 -17 1 -21 15 -4 8 9 8 15 2 15 -6 0 -14 -5 -17 -11z"/>
<path d="M310 481 c0 -6 5 -13 10 -16 6 -3 10 1 10 9 0 9 -4 16 -10 16 -5 0
-10 -4 -10 -9z"/>
<path d="M597 404 c-4 -4 -7 -47 -7 -96 0 -70 3 -88 15 -88 11 0 15 16 17 68
l3 67 21 -65 c25 -81 48 -91 64 -28 24 93 28 97 29 26 1 -54 4 -68 16 -68 13
0 15 15 13 93 -3 87 -4 92 -25 95 -20 3 -25 -4 -39 -57 -10 -34 -20 -59 -23
-55 -3 3 -12 28 -21 57 -11 38 -21 53 -36 55 -11 2 -23 0 -27 -4z"/>
<path d="M815 401 c-7 -12 12 -24 25 -16 11 7 4 25 -10 25 -5 0 -11 -4 -15 -9z"/>
<path d="M1057 403 c-4 -3 -7 -17 -7 -30 0 -12 -5 -23 -12 -23 -9 0 -9 -3 0
-12 7 -7 12 -26 12 -42 0 -58 10 -76 41 -76 15 0 31 5 34 10 3 5 -3 10 -14 10
-18 0 -21 6 -21 41 0 28 6 46 18 55 15 12 15 13 1 14 -10 0 -19 12 -22 30 -6
29 -17 37 -30 23z"/>
<path d="M1150 400 c-1 -5 -1 -44 -1 -85 0 -41 0 -79 1 -85 0 -16 103 -12 128
6 26 18 29 59 5 73 -15 8 -16 12 -5 22 17 18 15 44 -4 63 -17 18 -124 23 -124
6z m103 -34 c8 -20 -13 -36 -45 -36 -23 0 -28 4 -28 25 0 22 4 25 34 25 20 0
36 -6 39 -14z m2 -91 c0 -16 -8 -21 -37 -23 -35 -3 -38 -1 -38 23 0 24 3 26
38 23 29 -2 37 -7 37 -23z"/>
<path d="M1494 393 c-3 -10 -10 -26 -16 -37 -7 -13 -7 -21 0 -25 6 -4 12 -29
14 -56 3 -44 6 -50 27 -53 13 -2 28 1 34 7 8 8 5 11 -11 11 -19 0 -22 5 -22
44 0 31 5 46 16 50 8 3 12 10 9 16 -4 6 -11 8 -16 5 -5 -4 -9 5 -9 19 0 30
-18 44 -26 19z"/>
<path d="M159 363 c-6 -16 -9 -56 -7 -90 3 -51 9 -69 35 -100 16 -21 45 -47
64 -58 45 -26 131 -26 183 -1 45 23 93 84 102 132 7 38 -2 111 -16 134 -17 27
-19 5 -4 -39 26 -76 -10 -165 -84 -208 -59 -35 -143 -30 -197 11 -66 50 -91
139 -61 211 9 20 11 35 5 35 -5 0 -14 -12 -20 -27z"/>
<path d="M814 347 c-3 -8 -4 -39 -2 -68 2 -40 7 -54 18 -54 20 0 22 126 3 132
-7 3 -15 -2 -19 -10z"/>
<path d="M890 289 c0 -52 3 -70 13 -67 6 3 14 27 17 54 5 44 7 49 30 49 23 0
25 -4 28 -52 2 -38 7 -53 18 -53 21 0 20 103 -2 124 -19 19 -45 21 -63 4 -11
-10 -14 -10 -18 0 -12 33 -23 5 -23 -59z"/>
<path d="M1327 353 c-3 -5 6 -36 20 -71 27 -67 25 -92 -7 -92 -24 0 -27 -15
-4 -24 30 -11 53 14 83 94 17 43 31 84 31 91 0 24 -26 0 -40 -39 -22 -59 -26
-59 -45 -3 -16 48 -28 61 -38 44z"/>
<path d="M1590 340 c-26 -26 -26 -81 -2 -103 23 -21 71 -22 98 -3 27 20 10 32
-22 16 -18 -10 -30 -11 -42 -4 -32 21 -24 33 25 36 55 3 67 24 34 57 -27 27
-65 27 -91 1z m74 -26 c4 -10 -3 -14 -29 -14 -39 0 -41 2 -20 24 17 17 40 12
49 -10z"/>
<path d="M276 337 c-9 -7 -19 -27 -22 -44 -7 -42 24 -63 89 -63 69 0 87 12 87
59 0 33 -4 40 -27 49 -39 15 -106 14 -127 -1z m131 -12 c26 -20 5 -37 -54 -42
-34 -3 -54 0 -68 11 -19 15 -19 17 -2 30 23 18 100 19 124 1z m-117 -60 c0 -8
-4 -15 -10 -15 -5 0 -10 7 -10 15 0 8 5 15 10 15 6 0 10 -7 10 -15z m130 6 c0
-6 -4 -13 -10 -16 -5 -3 -10 1 -10 9 0 9 5 16 10 16 6 0 10 -4 10 -9z m-100
-16 c0 -8 -4 -15 -10 -15 -5 0 -10 7 -10 15 0 8 5 15 10 15 6 0 10 -7 10 -15z
m30 0 c0 -8 -4 -15 -10 -15 -5 0 -10 7 -10 15 0 8 5 15 10 15 6 0 10 -7 10
-15z m40 0 c0 -8 -4 -15 -10 -15 -5 0 -10 7 -10 15 0 8 5 15 10 15 6 0 10 -7
10 -15z"/>
<path d="M250 220 c0 -14 44 -30 85 -30 37 0 85 18 85 32 0 5 -10 2 -22 -6
-12 -9 -41 -16 -63 -16 -22 0 -51 7 -63 16 -13 9 -22 11 -22 4z"/>
<path d="M260 180 c0 -13 66 -32 92 -27 18 3 17 5 -7 6 -16 0 -42 8 -57 15
-16 8 -28 11 -28 6z"/>
<path d="M400 174 c-17 -9 -20 -14 -9 -14 9 0 22 7 29 15 15 18 13 18 -20 -1z"/>
</g>
</svg>
