<svg width="248" height="404" viewBox="0 0 248 404" fill="none" xmlns="http://www.w3.org/2000/svg">
<g opacity="0.1">
<path d="M155.853 240.781L63.4881 269.056C63.4016 269.083 63.327 269.143 63.278 269.224C63.229 269.306 63.2089 269.403 63.2214 269.499C63.2338 269.595 63.278 269.683 63.3458 269.746C63.4136 269.81 63.5006 269.846 63.5908 269.846C63.6255 269.846 63.6601 269.841 63.6934 269.83L156.058 241.547C156.139 241.506 156.205 241.436 156.242 241.348C156.28 241.261 156.286 241.162 156.262 241.069C156.237 240.976 156.182 240.896 156.107 240.843C156.032 240.791 155.942 240.768 155.853 240.781Z" fill="black"/>
<path d="M163.014 229.005L74.669 259.989C74.6205 260.004 74.5752 260.03 74.536 260.064C74.4967 260.098 74.4643 260.14 74.4405 260.188C74.4168 260.236 74.4024 260.288 74.398 260.342C74.3936 260.396 74.3995 260.451 74.4151 260.502C74.4308 260.554 74.456 260.601 74.4892 260.642C74.5224 260.683 74.5629 260.716 74.6083 260.74C74.6538 260.763 74.7032 260.777 74.7536 260.78C74.804 260.782 74.8544 260.774 74.9018 260.755L163.246 229.763C163.295 229.748 163.34 229.723 163.379 229.689C163.419 229.655 163.451 229.612 163.475 229.565C163.498 229.517 163.513 229.464 163.517 229.41C163.522 229.356 163.516 229.302 163.5 229.25C163.485 229.199 163.459 229.151 163.426 229.11C163.393 229.069 163.352 229.036 163.307 229.013C163.262 228.989 163.212 228.975 163.162 228.973C163.111 228.97 163.061 228.978 163.014 228.997V229.005Z" fill="black"/>
<path d="M169.251 217.17L85.5151 250.1C85.4336 250.134 85.3656 250.197 85.3227 250.279C85.2799 250.36 85.2648 250.455 85.2802 250.548C85.2957 250.64 85.3405 250.723 85.4071 250.784C85.4738 250.845 85.558 250.878 85.6453 250.88C85.6889 250.881 85.7323 250.872 85.7729 250.855L169.509 217.939C169.559 217.924 169.605 217.899 169.646 217.864C169.686 217.829 169.719 217.786 169.743 217.737C169.767 217.687 169.781 217.634 169.784 217.578C169.788 217.523 169.781 217.468 169.764 217.415C169.746 217.363 169.719 217.315 169.684 217.275C169.649 217.234 169.606 217.202 169.559 217.18C169.511 217.158 169.46 217.147 169.409 217.147C169.357 217.147 169.306 217.159 169.259 217.181L169.251 217.17Z" fill="black"/>
<path d="M174.505 205.392L95.9199 239.491C95.8402 239.527 95.7745 239.592 95.7338 239.674C95.6931 239.756 95.6799 239.85 95.6963 239.942C95.7127 240.033 95.7578 240.115 95.824 240.175C95.8902 240.235 95.9736 240.268 96.0601 240.27C96.1081 240.27 96.1557 240.26 96.2003 240.241L174.798 206.139C174.843 206.119 174.885 206.09 174.92 206.053C174.955 206.015 174.983 205.971 175.002 205.922C175.021 205.874 175.032 205.821 175.032 205.768C175.032 205.715 175.023 205.663 175.004 205.614C174.986 205.565 174.958 205.52 174.924 205.482C174.889 205.445 174.848 205.415 174.802 205.394C174.757 205.373 174.708 205.363 174.659 205.362C174.609 205.362 174.561 205.372 174.515 205.392H174.505Z" fill="black"/>
<path d="M178.718 193.802L105.755 228.285C105.676 228.323 105.612 228.388 105.573 228.47C105.534 228.552 105.523 228.646 105.54 228.736C105.558 228.826 105.603 228.907 105.67 228.965C105.736 229.023 105.819 229.056 105.905 229.056C105.957 229.057 106.008 229.045 106.055 229.021L179.021 194.541C179.112 194.498 179.184 194.417 179.22 194.318C179.256 194.218 179.254 194.107 179.213 194.009C179.173 193.911 179.098 193.834 179.005 193.795C178.913 193.756 178.809 193.759 178.718 193.802Z" fill="black"/>
<path d="M181.845 182.526L114.914 216.596C114.87 216.618 114.83 216.65 114.797 216.69C114.764 216.729 114.738 216.775 114.722 216.825C114.705 216.875 114.698 216.928 114.701 216.98C114.703 217.033 114.715 217.085 114.737 217.133C114.758 217.181 114.788 217.224 114.824 217.259C114.861 217.295 114.904 217.322 114.95 217.34C114.997 217.357 115.046 217.365 115.095 217.362C115.144 217.36 115.193 217.347 115.237 217.324L182.168 183.252C182.213 183.229 182.253 183.197 182.286 183.158C182.319 183.119 182.345 183.073 182.361 183.023C182.378 182.973 182.385 182.92 182.382 182.867C182.38 182.814 182.367 182.762 182.345 182.714C182.302 182.619 182.225 182.545 182.131 182.51C182.037 182.475 181.935 182.481 181.845 182.526Z" fill="black"/>
<path d="M183.848 171.688L123.311 204.564C123.222 204.612 123.155 204.695 123.124 204.796C123.093 204.897 123.099 205.006 123.143 205.102C123.165 205.149 123.195 205.191 123.232 205.225C123.269 205.26 123.312 205.286 123.359 205.303C123.405 205.319 123.454 205.326 123.503 205.322C123.552 205.318 123.6 205.303 123.644 205.279L184.194 172.406C184.238 172.382 184.277 172.348 184.309 172.308C184.341 172.268 184.366 172.221 184.381 172.171C184.396 172.12 184.402 172.067 184.398 172.014C184.395 171.962 184.381 171.91 184.359 171.863C184.336 171.815 184.306 171.773 184.268 171.739C184.231 171.704 184.187 171.678 184.14 171.662C184.093 171.645 184.044 171.639 183.995 171.643C183.945 171.647 183.897 171.661 183.853 171.685L183.848 171.688Z" fill="black"/>
<path d="M185.219 161.573C185.172 161.48 185.094 161.41 185 161.379C184.906 161.348 184.805 161.358 184.718 161.406L130.821 192.31C130.748 192.353 130.689 192.42 130.656 192.502C130.622 192.585 130.615 192.676 130.635 192.763C130.656 192.85 130.703 192.927 130.768 192.983C130.834 193.038 130.915 193.068 130.999 193.068C131.061 193.069 131.122 193.052 131.177 193.02L185.066 162.116C185.109 162.091 185.147 162.057 185.179 162.016C185.21 161.976 185.233 161.929 185.247 161.878C185.261 161.828 185.266 161.775 185.261 161.723C185.256 161.67 185.242 161.619 185.219 161.573Z" fill="black"/>
<path d="M137.249 180.521C137.282 180.583 137.329 180.635 137.387 180.671C137.444 180.708 137.51 180.727 137.577 180.728C137.641 180.728 137.704 180.71 137.759 180.676L184.785 152.498C184.869 152.445 184.931 152.36 184.958 152.26C184.985 152.16 184.975 152.053 184.93 151.96C184.882 151.869 184.803 151.802 184.71 151.773C184.616 151.744 184.516 151.755 184.43 151.804L137.394 179.972C137.308 180.025 137.244 180.112 137.217 180.215C137.189 180.317 137.201 180.427 137.249 180.521Z" fill="black"/>
<path d="M142.808 168.237C142.857 168.326 142.937 168.391 143.031 168.419C143.124 168.447 143.223 168.434 143.308 168.385L183.341 143.662C183.422 143.606 183.48 143.519 183.503 143.418C183.526 143.318 183.513 143.212 183.465 143.122C183.417 143.032 183.338 142.965 183.246 142.936C183.153 142.906 183.053 142.916 182.968 142.963L142.935 167.686C142.851 167.741 142.79 167.83 142.766 167.934C142.742 168.037 142.757 168.146 142.808 168.237Z" fill="black"/>
<path d="M147.286 156.131C147.336 156.22 147.415 156.285 147.509 156.312C147.602 156.34 147.701 156.328 147.787 156.278L180.772 135.678C180.855 135.624 180.914 135.538 180.939 135.438C180.965 135.338 180.953 135.231 180.908 135.14C180.883 135.094 180.85 135.054 180.811 135.022C180.772 134.99 180.727 134.966 180.679 134.953C180.632 134.939 180.582 134.936 180.533 134.943C180.484 134.951 180.437 134.968 180.394 134.995L147.421 155.593C147.338 155.647 147.277 155.732 147.252 155.833C147.227 155.933 147.239 156.04 147.286 156.131Z" fill="black"/>
<path d="M150.954 144.551C151.018 144.552 151.082 144.534 151.139 144.5L177.104 128.672C177.19 128.62 177.254 128.532 177.28 128.429C177.307 128.326 177.294 128.216 177.245 128.123C177.196 128.03 177.114 127.961 177.018 127.933C176.922 127.905 176.82 127.918 176.733 127.971L150.768 143.799C150.697 143.843 150.641 143.911 150.609 143.993C150.577 144.075 150.572 144.166 150.593 144.251C150.614 144.337 150.661 144.413 150.726 144.467C150.791 144.521 150.871 144.551 150.954 144.551Z" fill="black"/>
<path d="M152.795 132.996C152.826 133.062 152.874 133.118 152.933 133.157C152.992 133.196 153.059 133.217 153.128 133.217C153.189 133.217 153.248 133.201 153.301 133.171L172.342 122.704C172.389 122.682 172.43 122.649 172.465 122.609C172.499 122.569 172.525 122.522 172.542 122.47C172.559 122.419 172.566 122.364 172.563 122.31C172.56 122.255 172.546 122.202 172.523 122.153C172.5 122.105 172.468 122.061 172.429 122.027C172.39 121.992 172.344 121.966 172.296 121.95C172.247 121.934 172.196 121.93 172.145 121.936C172.095 121.942 172.046 121.959 172.002 121.986L152.958 132.453C152.914 132.478 152.875 132.511 152.843 132.551C152.811 132.591 152.787 132.638 152.772 132.689C152.757 132.739 152.751 132.792 152.755 132.845C152.759 132.898 152.773 132.949 152.795 132.996Z" fill="black"/>
<path d="M153.759 122.183C153.784 122.261 153.832 122.329 153.895 122.378C153.959 122.426 154.034 122.451 154.112 122.451C154.153 122.451 154.195 122.444 154.234 122.43L166.535 117.848C166.581 117.83 166.624 117.803 166.661 117.768C166.697 117.732 166.727 117.689 166.748 117.642C166.77 117.594 166.782 117.542 166.785 117.489C166.787 117.436 166.78 117.383 166.764 117.333C166.747 117.283 166.722 117.237 166.689 117.198C166.656 117.159 166.616 117.127 166.571 117.104C166.527 117.081 166.479 117.068 166.429 117.065C166.38 117.062 166.331 117.07 166.284 117.087L153.984 121.656C153.936 121.673 153.892 121.701 153.855 121.738C153.818 121.774 153.787 121.818 153.766 121.867C153.745 121.917 153.734 121.97 153.733 122.024C153.731 122.078 153.74 122.132 153.759 122.183Z" fill="black"/>
<path d="M153.791 112.366L159.598 114.14C159.631 114.15 159.666 114.154 159.701 114.153C159.791 114.153 159.878 114.117 159.946 114.053C160.013 113.99 160.058 113.902 160.07 113.806C160.083 113.71 160.062 113.612 160.013 113.531C159.964 113.45 159.89 113.39 159.803 113.363L153.996 111.59C153.9 111.56 153.797 111.573 153.71 111.625C153.623 111.678 153.559 111.765 153.532 111.868C153.505 111.971 153.517 112.081 153.565 112.175C153.614 112.268 153.695 112.337 153.791 112.366Z" fill="black"/>
<path d="M152.097 111.629H152.114C152.211 111.63 152.304 111.59 152.374 111.518C152.444 111.447 152.485 111.349 152.49 111.245L152.853 102.724C152.857 102.617 152.821 102.513 152.754 102.434C152.687 102.355 152.594 102.307 152.495 102.302C152.396 102.299 152.299 102.337 152.226 102.409C152.153 102.481 152.108 102.58 152.102 102.686L151.739 111.208C151.736 111.261 151.744 111.313 151.76 111.363C151.777 111.413 151.803 111.459 151.836 111.498C151.869 111.537 151.91 111.569 151.954 111.592C151.999 111.614 152.047 111.627 152.097 111.629Z" fill="black"/>
<path d="M143.586 110.297C143.632 110.319 143.682 110.331 143.732 110.332C143.782 110.333 143.832 110.323 143.879 110.303C143.926 110.283 143.968 110.253 144.004 110.215C144.04 110.177 144.068 110.132 144.087 110.082L150.23 94.4958C150.268 94.3971 150.269 94.2859 150.232 94.1866C150.194 94.0873 150.121 94.0081 150.029 93.9664C149.937 93.9247 149.834 93.9239 149.741 93.9643C149.649 94.0046 149.575 94.0827 149.536 94.1814L143.394 109.768C143.355 109.865 143.353 109.976 143.389 110.075C143.425 110.174 143.496 110.253 143.586 110.297Z" fill="black"/>
<path d="M134.462 110.216C134.549 110.264 134.65 110.274 134.743 110.244C134.837 110.213 134.915 110.144 134.963 110.052L146.434 87.1514C146.481 87.057 146.492 86.9463 146.463 86.8437C146.434 86.7412 146.368 86.6551 146.28 86.6045C146.192 86.5539 146.089 86.5429 145.994 86.5739C145.898 86.6049 145.818 86.6754 145.771 86.7698L134.302 109.671C134.278 109.718 134.264 109.769 134.259 109.822C134.255 109.875 134.26 109.929 134.275 109.98C134.29 110.031 134.314 110.078 134.346 110.118C134.378 110.159 134.418 110.192 134.462 110.216Z" fill="black"/>
<path d="M124.763 111.385C124.82 111.42 124.883 111.438 124.948 111.439C125.014 111.439 125.079 111.421 125.136 111.385C125.194 111.35 125.241 111.299 125.274 111.237L141.561 80.871C141.611 80.7783 141.625 80.6682 141.599 80.5649C141.573 80.4616 141.51 80.3735 141.424 80.3201C141.337 80.2666 141.235 80.2522 141.139 80.2799C141.042 80.3076 140.96 80.3752 140.911 80.4679L124.623 110.834C124.574 110.927 124.561 111.037 124.587 111.141C124.614 111.244 124.677 111.332 124.763 111.385Z" fill="black"/>
<path d="M114.573 113.783C114.63 113.818 114.695 113.837 114.761 113.836C114.826 113.837 114.891 113.819 114.948 113.784C115.005 113.749 115.053 113.698 115.086 113.637L135.624 75.7037C135.67 75.6117 135.681 75.5042 135.654 75.4037C135.628 75.3033 135.566 75.2178 135.482 75.1652C135.398 75.1126 135.298 75.0971 135.204 75.1219C135.109 75.1466 135.028 75.2097 134.976 75.298L114.435 113.232C114.411 113.278 114.395 113.328 114.388 113.381C114.382 113.433 114.385 113.487 114.398 113.538C114.41 113.589 114.433 113.637 114.463 113.679C114.493 113.721 114.53 113.756 114.573 113.783Z" fill="black"/>
<path d="M104.001 117.383C104.059 117.417 104.123 117.435 104.189 117.434C104.255 117.434 104.32 117.416 104.377 117.38C104.434 117.345 104.481 117.294 104.514 117.233L128.694 71.7504C128.743 71.6574 128.756 71.5473 128.73 71.4442C128.703 71.3412 128.64 71.2536 128.553 71.2009C128.466 71.1482 128.364 71.1345 128.268 71.163C128.172 71.1915 128.09 71.2597 128.041 71.3527L103.861 116.84C103.814 116.933 103.802 117.041 103.828 117.143C103.854 117.244 103.916 117.33 104.001 117.383Z" fill="black"/>
<path d="M93.1616 122.142C93.2174 122.176 93.2804 122.194 93.3444 122.194C93.4115 122.194 93.4775 122.174 93.5352 122.137C93.5929 122.1 93.6403 122.047 93.6723 121.984L120.841 69.0256C120.868 68.9791 120.887 68.9272 120.895 68.8729C120.903 68.8186 120.901 68.7631 120.888 68.7098C120.875 68.6565 120.853 68.6065 120.821 68.563C120.79 68.5195 120.751 68.4833 120.706 68.4567C120.661 68.43 120.612 68.4135 120.561 68.4082C120.51 68.4028 120.458 68.4087 120.409 68.4255C120.361 68.4423 120.316 68.4696 120.277 68.5058C120.238 68.542 120.207 68.5863 120.185 68.6359L93.024 121.594C92.9756 121.687 92.9629 121.796 92.9886 121.899C93.0144 122.001 93.0765 122.089 93.1616 122.142Z" fill="black"/>
<path d="M82.1752 128.011C82.2283 128.042 82.2877 128.057 82.3479 128.057C82.4164 128.057 82.4836 128.037 82.5423 127.999C82.6009 127.961 82.6488 127.907 82.6808 127.842L112.157 67.5768C112.203 67.4821 112.213 67.3715 112.183 67.2694C112.153 67.1674 112.087 67.0822 111.998 67.0327C111.91 66.9831 111.807 66.9733 111.712 67.0053C111.617 67.0373 111.538 67.1085 111.492 67.2033L82.01 127.466C81.9645 127.562 81.9564 127.673 81.9874 127.775C82.0184 127.878 82.0859 127.962 82.1752 128.011Z" fill="black"/>
<path d="M71.1563 134.923C71.2081 134.952 71.2656 134.967 71.324 134.966C71.3939 134.966 71.4624 134.944 71.5216 134.905C71.5809 134.865 71.6286 134.808 71.6594 134.74L102.733 67.4184C102.759 67.3707 102.776 67.3177 102.782 67.2627C102.789 67.2077 102.784 67.1518 102.77 67.0987C102.755 67.0455 102.73 66.9962 102.697 66.9538C102.664 66.9113 102.623 66.8767 102.577 66.8521C102.53 66.8274 102.48 66.8133 102.428 66.8106C102.377 66.8078 102.325 66.8165 102.277 66.8361C102.229 66.8557 102.185 66.8858 102.148 66.9245C102.111 66.9632 102.082 67.0097 102.062 67.061L70.9961 134.383C70.9512 134.477 70.9428 134.587 70.9728 134.688C71.0028 134.789 71.0687 134.874 71.1563 134.923Z" fill="black"/>
<path d="M60.2331 142.802C60.2823 142.828 60.3362 142.84 60.3908 142.84C60.4625 142.84 60.5327 142.818 60.5931 142.777C60.6535 142.735 60.7014 142.676 60.7312 142.606L92.6758 68.5469C92.6965 68.4988 92.7082 68.4467 92.7102 68.3937C92.7121 68.3407 92.7044 68.2878 92.6873 68.238C92.6702 68.1882 92.6441 68.1425 92.6106 68.1035C92.5771 68.0646 92.5367 68.0331 92.4919 68.0108C92.447 67.9886 92.3985 67.9761 92.3491 67.974C92.2997 67.9718 92.2504 67.9802 92.2041 67.9985C92.1577 68.0169 92.1151 68.0449 92.0788 68.0808C92.0425 68.1168 92.0132 68.1602 91.9925 68.2083L60.0479 142.267C60.0273 142.315 60.0158 142.368 60.0139 142.42C60.0121 142.473 60.02 142.526 60.0372 142.576C60.0544 142.626 60.0806 142.671 60.1142 142.71C60.1478 142.749 60.1882 142.78 60.2331 142.802Z" fill="black"/>
<path d="M49.515 151.562C49.5612 151.586 49.6117 151.598 49.6627 151.597C49.7363 151.597 49.8082 151.574 49.8696 151.531C49.931 151.487 49.9792 151.425 50.0081 151.353L82.0904 70.9437C82.1296 70.8453 82.1307 70.7343 82.0937 70.635C82.0566 70.5358 81.9843 70.4564 81.8927 70.4143C81.8011 70.3723 81.6976 70.371 81.6052 70.4108C81.5127 70.4506 81.4387 70.5283 81.3995 70.6266L49.3173 151.025C49.2967 151.074 49.2855 151.127 49.2843 151.181C49.2831 151.235 49.292 151.288 49.3104 151.338C49.3289 151.389 49.3565 151.434 49.3916 151.473C49.4268 151.511 49.4687 151.542 49.515 151.562Z" fill="black"/>
<path d="M39.1295 161.111C39.1726 161.129 39.2184 161.138 39.2647 161.138C39.3417 161.137 39.4167 161.111 39.4794 161.063C39.542 161.015 39.5894 160.947 39.6151 160.869L71.0966 74.6072C71.1332 74.5074 71.1312 74.3961 71.0913 74.2979C71.0514 74.1996 70.9768 74.1224 70.8839 74.0832C70.7909 74.044 70.6873 74.046 70.5958 74.0888C70.5042 74.1317 70.4323 74.2118 70.3958 74.3116L38.9168 160.574C38.8969 160.624 38.8867 160.678 38.8867 160.732C38.8867 160.787 38.897 160.841 38.9168 160.891C38.9367 160.941 38.9658 160.986 39.0023 161.024C39.0388 161.062 39.0821 161.091 39.1295 161.111Z" fill="black"/>
<path d="M29.194 171.336C29.234 171.352 29.2764 171.36 29.3192 171.36C29.3968 171.361 29.4726 171.335 29.536 171.287C29.5993 171.239 29.6469 171.17 29.6721 171.092L59.822 79.482C59.8384 79.4321 59.8455 79.3791 59.8429 79.3262C59.8403 79.2734 59.828 79.2215 59.8067 79.1738C59.7855 79.126 59.7556 79.0832 59.7189 79.0477C59.6823 79.0123 59.6395 78.985 59.5929 78.9674C59.5464 78.9497 59.4971 78.9421 59.4479 78.9449C59.3986 78.9477 59.3503 78.9609 59.3058 78.9837C59.2613 79.0066 59.2214 79.0386 59.1884 79.078C59.1555 79.1174 59.13 79.1633 59.1136 79.2133L28.9437 170.823C28.9279 170.874 28.9218 170.928 28.9259 170.982C28.93 171.036 28.9442 171.089 28.9675 171.136C28.9909 171.184 29.023 171.227 29.0619 171.261C29.1008 171.295 29.1457 171.321 29.194 171.336Z" fill="black"/>
<path d="M19.7897 182.134C19.8264 182.144 19.8643 182.15 19.9024 182.15C19.9822 182.15 20.06 182.122 20.1243 182.072C20.1887 182.021 20.2363 181.949 20.2603 181.868L48.3626 85.5094C48.3925 85.4072 48.3833 85.2963 48.3371 85.2013C48.2908 85.1063 48.2113 85.035 48.1161 85.0029C48.0208 84.9708 47.9176 84.9807 47.8291 85.0303C47.7406 85.08 47.6741 85.1653 47.6442 85.2676L19.5444 181.628C19.5146 181.73 19.5237 181.841 19.5697 181.935C19.6157 182.03 19.6948 182.101 19.7897 182.134Z" fill="black"/>
<path d="M11.0547 193.377C11.0863 193.388 11.1192 193.393 11.1523 193.393C11.2348 193.393 11.315 193.364 11.3805 193.31C11.4461 193.256 11.4934 193.181 11.5153 193.095L36.8717 92.6255C36.8883 92.5733 36.8948 92.5179 36.8907 92.4629C36.8867 92.4079 36.8721 92.3544 36.848 92.3057C36.8239 92.2569 36.7907 92.2141 36.7505 92.1797C36.7103 92.1453 36.6639 92.1201 36.6143 92.1057C36.5647 92.0913 36.5128 92.0881 36.462 92.0961C36.4111 92.1041 36.3623 92.1232 36.3186 92.1523C36.275 92.1814 36.2373 92.2198 36.208 92.2651C36.1787 92.3104 36.1584 92.3618 36.1483 92.4159L10.7893 192.883C10.7765 192.934 10.7731 192.987 10.7795 193.04C10.7859 193.092 10.8018 193.143 10.8265 193.189C10.8511 193.235 10.884 193.275 10.9231 193.308C10.9623 193.34 11.007 193.364 11.0547 193.377Z" fill="black"/>
<path d="M3.06748 204.951C3.09496 204.954 3.12261 204.954 3.15009 204.951C3.23484 204.951 3.31706 204.92 3.38341 204.864C3.44976 204.807 3.49633 204.728 3.51553 204.64L25.4677 100.746C25.4823 100.693 25.4866 100.638 25.4804 100.583C25.4741 100.528 25.4575 100.476 25.4315 100.428C25.4055 100.381 25.3707 100.339 25.3293 100.307C25.2878 100.274 25.2406 100.251 25.1905 100.239C25.1404 100.227 25.0885 100.226 25.038 100.236C24.9875 100.246 24.9395 100.267 24.897 100.298C24.8545 100.329 24.8184 100.369 24.7908 100.416C24.7633 100.462 24.7449 100.515 24.7368 100.569L2.78213 204.46C2.77028 204.512 2.76831 204.566 2.77629 204.62C2.78428 204.673 2.80206 204.724 2.82863 204.77C2.8552 204.816 2.89001 204.855 2.93102 204.886C2.97204 204.918 3.01843 204.94 3.06748 204.951Z" fill="black"/>
<path d="M-4.08248 216.722H-4.01489C-3.92648 216.722 -3.84085 216.689 -3.77308 216.628C-3.70531 216.567 -3.65976 216.482 -3.64443 216.389L14.2753 109.8C14.2883 109.697 14.2638 109.593 14.2068 109.509C14.1499 109.425 14.0649 109.368 13.9696 109.349C13.8743 109.331 13.7762 109.353 13.6955 109.41C13.6149 109.468 13.5581 109.556 13.5369 109.658L-4.38535 216.246C-4.39511 216.299 -4.39498 216.353 -4.38498 216.406C-4.37497 216.458 -4.35528 216.508 -4.32707 216.552C-4.29886 216.597 -4.2627 216.635 -4.2207 216.664C-4.17869 216.693 -4.1317 216.712 -4.08248 216.722Z" fill="black"/>
<path d="M-10.3135 228.567H-10.266C-10.1745 228.567 -10.0862 228.531 -10.0175 228.467C-9.94888 228.402 -9.9046 228.312 -9.89302 228.215L3.41347 119.683C3.41988 119.631 3.41652 119.577 3.40357 119.525C3.39063 119.474 3.36835 119.425 3.33802 119.383C3.30768 119.341 3.26989 119.305 3.22679 119.279C3.18369 119.252 3.13613 119.235 3.08682 119.228C3.03751 119.221 2.98743 119.225 2.93942 119.239C2.89141 119.253 2.84642 119.276 2.80702 119.309C2.76763 119.342 2.73459 119.382 2.7098 119.428C2.68501 119.475 2.66895 119.526 2.66254 119.579L-10.6364 228.113C-10.6431 228.165 -10.6401 228.219 -10.6275 228.27C-10.6148 228.322 -10.5929 228.37 -10.5629 228.412C-10.5329 228.454 -10.4954 228.49 -10.4526 228.516C-10.4098 228.543 -10.3626 228.56 -10.3135 228.567Z" fill="black"/>
<path d="M76.8192 317.661L-23.0821 302.32C-23.1308 302.312 -23.1804 302.315 -23.228 302.328C-23.2757 302.341 -23.3204 302.364 -23.3597 302.396C-23.3991 302.428 -23.4321 302.467 -23.4571 302.513C-23.482 302.558 -23.4984 302.609 -23.5051 302.661C-23.5139 302.706 -23.5139 302.753 -23.5051 302.798L-23.8205 302.723C-23.7615 302.672 -23.7184 302.603 -23.6969 302.525C-23.6754 302.448 -23.6766 302.365 -23.7004 302.287L-54.0855 201.95C-54.1164 201.848 -54.1837 201.763 -54.2727 201.714C-54.3616 201.666 -54.4649 201.657 -54.5599 201.69C-54.6548 201.723 -54.7336 201.796 -54.7789 201.891C-54.8242 201.987 -54.8323 202.098 -54.8014 202.199L-25.4 299.264L-58.5736 214.021C-58.5904 213.969 -58.617 213.921 -58.6517 213.88C-58.6864 213.84 -58.7285 213.807 -58.7754 213.785C-58.8223 213.762 -58.8729 213.75 -58.9242 213.75C-58.9756 213.749 -59.0265 213.76 -59.0738 213.781C-59.1211 213.803 -59.1639 213.834 -59.1994 213.874C-59.2349 213.914 -59.2624 213.961 -59.2803 214.013C-59.2982 214.064 -59.306 214.119 -59.3033 214.174C-59.3005 214.229 -59.2873 214.283 -59.2644 214.333L-26.2936 299.06L-61.9177 225.772C-61.9639 225.678 -62.0432 225.606 -62.1382 225.574C-62.2333 225.542 -62.3363 225.552 -62.4246 225.602C-62.5129 225.651 -62.5793 225.736 -62.6091 225.838C-62.6389 225.941 -62.6297 226.051 -62.5836 226.146L-27.2072 298.896L-64.1104 237.089C-64.1666 237.005 -64.2506 236.947 -64.3451 236.928C-64.4395 236.909 -64.5373 236.929 -64.6181 236.985C-64.699 237.041 -64.7568 237.128 -64.7798 237.228C-64.8027 237.328 -64.7889 237.434 -64.7412 237.524L-28.1784 298.773L-65.1267 247.811C-65.1903 247.735 -65.2782 247.688 -65.3728 247.679C-65.4675 247.67 -65.5617 247.7 -65.6366 247.763C-65.7116 247.825 -65.7616 247.916 -65.7765 248.017C-65.7915 248.118 -65.7704 248.221 -65.7174 248.305L-29.2172 298.66L-64.9215 257.856C-64.9898 257.779 -65.0836 257.735 -65.1823 257.732C-65.281 257.729 -65.3768 257.768 -65.4489 257.841C-65.521 257.913 -65.5636 258.013 -65.5675 258.119C-65.5714 258.225 -65.5362 258.328 -65.4696 258.407L-30.306 298.587L-63.5347 267.1C-63.6094 267.029 -63.7074 266.992 -63.8072 266.999C-63.9069 267.005 -64.0003 267.054 -64.0666 267.134C-64.133 267.214 -64.167 267.319 -64.1612 267.426C-64.1553 267.533 -64.11 267.634 -64.0354 267.705L-31.495 298.547L-60.9666 275.436C-61.0472 275.373 -61.1479 275.347 -61.2465 275.364C-61.3451 275.38 -61.4334 275.438 -61.4922 275.525C-61.551 275.611 -61.5753 275.719 -61.5598 275.825C-61.5443 275.931 -61.4903 276.026 -61.4096 276.089L-32.7566 298.558L-57.2269 282.81C-57.2692 282.78 -57.3168 282.759 -57.3669 282.749C-57.4169 282.739 -57.4683 282.739 -57.518 282.751C-57.5677 282.763 -57.6147 282.786 -57.6559 282.818C-57.6972 282.85 -57.732 282.891 -57.7582 282.938C-57.7844 282.984 -57.8014 283.037 -57.8082 283.091C-57.815 283.145 -57.8115 283.2 -57.7979 283.253C-57.7842 283.305 -57.7608 283.355 -57.7289 283.397C-57.697 283.44 -57.6574 283.475 -57.6124 283.501L-34.1333 298.609L-52.3859 289.088C-52.4303 289.064 -52.4785 289.051 -52.5277 289.048C-52.5769 289.045 -52.6263 289.052 -52.6729 289.069C-52.7195 289.087 -52.7625 289.114 -52.7993 289.149C-52.8362 289.184 -52.8663 289.227 -52.8878 289.274C-52.9093 289.322 -52.9219 289.374 -52.9248 289.427C-52.9277 289.479 -52.9209 289.532 -52.9047 289.582C-52.8886 289.632 -52.8634 289.679 -52.8307 289.718C-52.7979 289.758 -52.7582 289.79 -52.7138 289.813L-35.6251 298.727L-46.4736 294.231C-46.5196 294.212 -46.5687 294.203 -46.618 294.204C-46.6673 294.205 -46.7159 294.217 -46.761 294.239C-46.8061 294.26 -46.8468 294.291 -46.8808 294.329C-46.9148 294.368 -46.9414 294.413 -46.9592 294.462C-46.9769 294.512 -46.9855 294.564 -46.9842 294.617C-46.983 294.67 -46.9721 294.722 -46.9521 294.771C-46.9321 294.819 -46.9035 294.863 -46.8677 294.899C-46.832 294.936 -46.7899 294.964 -46.7439 294.983L-37.2321 298.92L-39.56 298.179C-39.6073 298.164 -39.657 298.159 -39.7061 298.164C-39.7551 298.17 -39.8027 298.186 -39.8461 298.211C-39.8894 298.237 -39.9277 298.271 -39.9587 298.312C-39.9897 298.353 -40.0129 298.401 -40.0268 298.451C-40.0408 298.502 -40.0453 298.555 -40.0401 298.608C-40.0349 298.661 -40.0201 298.712 -39.9965 298.758C-39.9729 298.805 -39.941 298.846 -39.9026 298.879C-39.8642 298.913 -39.8201 298.938 -39.7728 298.953L-32.1784 301.371C-32.1622 301.445 -32.1269 301.513 -32.0764 301.567C-32.0259 301.621 -31.9624 301.658 -31.893 301.675L-29.4325 302.247L-28.4538 302.559L-27.5702 302.924L-26.7692 303.341L-26.0458 303.809L-25.3849 304.324L-24.7842 304.894L-24.2385 305.518L-23.7379 306.203L-23.2873 306.955L-22.8818 307.788L-21.813 310.54C-21.7843 310.614 -21.7359 310.676 -21.674 310.72C-21.6121 310.764 -21.5394 310.788 -21.4651 310.787H-21.425L-18.1209 317.586C-18.089 317.651 -18.0411 317.706 -17.9824 317.744C-17.9237 317.781 -17.8565 317.801 -17.788 317.801C-17.727 317.802 -17.6667 317.786 -17.6128 317.756C-17.5259 317.706 -17.4605 317.622 -17.431 317.522C-17.4015 317.421 -17.4101 317.312 -17.4551 317.218L-18.7067 314.619L-13.3475 323.598C-13.3139 323.655 -13.2674 323.702 -13.2122 323.734C-13.157 323.767 -13.095 323.783 -13.0321 323.783C-12.9648 323.783 -12.8987 323.763 -12.8408 323.726C-12.7829 323.689 -12.7354 323.637 -12.7031 323.573C-12.6709 323.51 -12.6551 323.438 -12.6575 323.366C-12.6599 323.293 -12.6804 323.223 -12.7167 323.162L-18.6741 313.182L-7.56786 328.499C-7.53314 328.548 -7.48842 328.587 -7.43718 328.614C-7.38594 328.641 -7.32959 328.655 -7.2725 328.655C-7.18879 328.656 -7.10744 328.625 -7.04221 328.569C-7.00325 328.537 -6.97064 328.497 -6.94625 328.451C-6.92188 328.405 -6.9062 328.354 -6.90015 328.302C-6.8941 328.249 -6.89779 328.196 -6.911 328.145C-6.92421 328.094 -6.94669 328.046 -6.97713 328.005L-18.6841 311.854L-0.834511 332.248C-0.799522 332.288 -0.757248 332.32 -0.710312 332.342C-0.663376 332.363 -0.612785 332.374 -0.561676 332.374C-0.468231 332.373 -0.378738 332.334 -0.311363 332.264C-0.239021 332.191 -0.1968 332.09 -0.193985 331.983C-0.19117 331.876 -0.227989 331.772 -0.296349 331.694L-18.7392 310.623L6.77242 334.809C6.84132 334.875 6.93044 334.911 7.02272 334.911C7.07617 334.911 7.12894 334.898 7.17766 334.875C7.22637 334.851 7.26994 334.817 7.30557 334.774C7.37082 334.693 7.40374 334.588 7.39718 334.482C7.39062 334.375 7.34509 334.275 7.27053 334.204L-18.8143 309.481L15.1778 336.115C15.2175 336.148 15.263 336.173 15.3116 336.187C15.3602 336.201 15.411 336.205 15.461 336.197C15.5109 336.19 15.5589 336.172 15.6022 336.144C15.6455 336.117 15.6831 336.08 15.7129 336.036C15.7426 335.992 15.7639 335.943 15.7754 335.89C15.7869 335.837 15.7884 335.783 15.7798 335.729C15.7712 335.676 15.7527 335.625 15.7254 335.58C15.6981 335.534 15.6626 335.495 15.6209 335.465L-18.9219 308.385L24.2966 336.198C24.3545 336.237 24.4213 336.257 24.4894 336.258C24.5717 336.258 24.6519 336.229 24.7175 336.175C24.7831 336.122 24.8305 336.047 24.8525 335.962C24.8744 335.876 24.8696 335.786 24.8388 335.704C24.808 335.622 24.7529 335.553 24.6821 335.508L-19.0721 307.358L33.9937 335.037C34.0453 335.064 34.1017 335.078 34.1589 335.078C34.2438 335.078 34.3261 335.046 34.3924 334.99C34.4587 334.933 34.5051 334.853 34.524 334.764C34.5429 334.675 34.5331 334.582 34.4964 334.5C34.4596 334.418 34.398 334.352 34.3216 334.312L-19.2448 306.364L44.2138 332.657C44.2569 332.675 44.3028 332.684 44.349 332.683C44.426 332.683 44.501 332.656 44.5637 332.608C44.6264 332.56 44.6738 332.493 44.6994 332.415C44.7346 332.315 44.7318 332.204 44.6915 332.107C44.6512 332.009 44.5767 331.932 44.4842 331.893L-19.4501 305.415L54.817 329.064C54.8511 329.074 54.8865 329.08 54.9221 329.08C55.0127 329.08 55.1005 329.046 55.1692 328.983C55.238 328.919 55.283 328.831 55.2962 328.735C55.3093 328.639 55.2895 328.541 55.2406 328.459C55.1916 328.377 55.1167 328.317 55.0297 328.29L-19.7054 304.499L65.6879 324.315C65.7137 324.318 65.7397 324.318 65.7655 324.315C65.8651 324.327 65.9648 324.295 66.0428 324.228C66.1207 324.16 66.1704 324.062 66.1811 323.955C66.1917 323.848 66.1623 323.741 66.0994 323.657C66.0365 323.574 65.9452 323.52 65.8456 323.509L-20.0333 303.58L76.7066 318.438H76.7617C76.8613 318.446 76.9595 318.41 77.0349 318.34C77.1102 318.27 77.1564 318.17 77.1634 318.063C77.1704 317.956 77.1375 317.851 77.072 317.77C77.0065 317.689 76.9138 317.639 76.8142 317.632L76.8192 317.661Z" fill="black"/>
<path d="M87.8199 310.75L-13.6784 302.468C-13.778 302.46 -13.8766 302.494 -13.9524 302.564C-14.0282 302.634 -14.0751 302.733 -14.0827 302.84C-14.0903 302.947 -14.0581 303.053 -13.9931 303.134C-13.9281 303.216 -13.8356 303.266 -13.736 303.274L87.7673 311.556H87.7948C87.8944 311.561 87.9915 311.522 88.0647 311.45C88.1379 311.377 88.1813 311.276 88.1853 311.169C88.1893 311.063 88.1536 310.958 88.086 310.88C88.0184 310.801 87.9244 310.754 87.8249 310.75H87.8199Z" fill="black"/>
<path d="M98.7319 302.873L-3.64501 301.328C-3.7435 301.327 -3.83824 301.369 -3.90859 301.443C-3.97893 301.517 -4.01915 301.617 -4.02047 301.723C-4.02182 301.83 -3.98361 301.934 -3.9142 302.011C-3.84479 302.088 -3.74982 302.132 -3.65001 302.134L98.7269 303.68C98.8254 303.68 98.9201 303.639 98.9905 303.565C99.0608 303.491 99.101 303.39 99.1024 303.284C99.1037 303.177 99.0655 303.074 98.9961 302.997C98.9267 302.92 98.8317 302.875 98.7319 302.873Z" fill="black"/>
<path d="M109.433 294.118L6.92881 298.909C6.82924 298.911 6.73452 298.956 6.66552 299.033C6.59651 299.11 6.55887 299.213 6.56087 299.32C6.56286 299.427 6.60431 299.529 6.67614 299.603C6.74796 299.677 6.84425 299.718 6.94383 299.715H6.96136L109.466 294.924C109.565 294.919 109.659 294.872 109.726 294.794C109.794 294.715 109.83 294.612 109.826 294.505C109.825 294.451 109.813 294.399 109.793 294.351C109.772 294.302 109.742 294.259 109.706 294.223C109.669 294.186 109.626 294.159 109.579 294.141C109.533 294.123 109.483 294.115 109.433 294.118Z" fill="black"/>
<path d="M119.807 284.583L17.9033 295.247C17.8037 295.252 17.71 295.299 17.6429 295.378C17.5758 295.457 17.5407 295.562 17.5453 295.668C17.55 295.775 17.594 295.876 17.6677 295.948C17.7414 296.02 17.8387 296.058 17.9383 296.053H17.9759L119.885 285.39C119.934 285.384 119.982 285.369 120.026 285.344C120.069 285.319 120.108 285.285 120.14 285.244C120.171 285.203 120.195 285.156 120.209 285.105C120.224 285.054 120.229 285 120.224 284.948C120.219 284.895 120.205 284.843 120.181 284.796C120.158 284.749 120.126 284.708 120.088 284.674C120.05 284.64 120.006 284.615 119.959 284.599C119.911 284.584 119.861 284.578 119.812 284.583H119.807Z" fill="black"/>
<path d="M129.749 274.372L29.1771 290.361C29.0775 290.369 28.9849 290.419 28.9196 290.5C28.8544 290.582 28.8218 290.687 28.8291 290.794C28.8364 290.901 28.883 291 28.9586 291.07C29.0342 291.141 29.1326 291.176 29.2321 291.168H29.2872L129.859 275.165C129.908 275.157 129.955 275.139 129.997 275.112C130.04 275.085 130.076 275.049 130.106 275.007C130.135 274.965 130.156 274.916 130.168 274.865C130.18 274.814 130.182 274.76 130.175 274.708C130.159 274.603 130.105 274.51 130.026 274.447C129.946 274.384 129.847 274.357 129.749 274.372Z" fill="black"/>
<path d="M139.139 263.572L40.6146 284.315C40.515 284.325 40.4233 284.378 40.3597 284.461C40.2961 284.543 40.2658 284.65 40.2754 284.757C40.2851 284.864 40.3338 284.962 40.4111 285.031C40.4883 285.099 40.5876 285.131 40.6872 285.121H40.7598L139.284 264.367C139.378 264.342 139.459 264.28 139.511 264.192C139.563 264.105 139.581 264 139.563 263.898C139.544 263.796 139.49 263.706 139.411 263.646C139.332 263.587 139.235 263.562 139.139 263.577V263.572Z" fill="black"/>
<path d="M147.874 252.336L52.093 277.199C51.9934 277.212 51.9025 277.266 51.8403 277.351C51.7781 277.435 51.7497 277.542 51.7613 277.649C51.773 277.756 51.8236 277.854 51.9023 277.921C51.9809 277.987 52.081 278.018 52.1806 278.005C52.2097 278.009 52.2391 278.009 52.2682 278.005L148.049 253.143C148.146 253.118 148.23 253.052 148.282 252.961C148.334 252.87 148.351 252.76 148.327 252.656C148.304 252.552 148.243 252.462 148.158 252.406C148.073 252.35 147.971 252.333 147.874 252.358V252.336Z" fill="black"/>
</g>
</svg>
